<svg version="1.1" xmlns="http://www.w3.org/2000/svg" width="682.667" height="682.667" viewBox="0 0 512.000000 512.000000"><path d="M0 4c0 2.4.5 4 1.2 4 1.7 0 7.7 7.1 7.1 8.6-.3.8.2 1.1 1.6.7 1.5-.4 2.3.1 3 2 .6 1.4 1.9 2.8 3 3.2 1.2.3 2.1 1.3 2.1 2.1s.7 1.4 1.5 1.4 1.5.6 1.5 1.4c0 .7 1.2 2.2 2.8 3.2 3.6 2.4 8.2 7 8.2 8.3 0 .6.5 1.1 1 1.1 1.1 0 12 10.9 12 12 0 .4 1.1 1.5 2.5 2.4 1.6 1.1 2.5 2.6 2.6 4.4 0 1.5.3 2.1.6 1.4.8-2 2.9-1.4 4.3 1.3.7 1.4 1.7 2.5 2.1 2.5 1.1 0 6.9 6 6.9 7.1 0 .5.8.9 1.9.9 1 0 2.1.9 2.4 2 .3 1.2 1.4 2 2.7 2 1.7 0 2.1.4 1.7 2-.3 1.1-.2 2 .3 2 .8 0 12 10.8 12 11.6 0 .7 4 4.4 4.8 4.4 1 0 3.7 4.3 3.4 5.3-.1.5.2.6.8.2.5-.3 1.3.1 1.6.9.3.9 1.1 1.6 1.6 1.6 1.5 0 5.3 5.2 5 6.7-.2.7.2 1.3.7 1.3 1.8 0 9 5.4 9.1 6.7 0 .7.7 1.3 1.5 1.3s1.5.5 1.5 1c0 .6.9 2 2 3.2 1 1.2 1.8 2.4 1.5 2.7-.2.4.6.8 1.7.8 1.1.1 2.6 1 3.3 2 3.2 4.5 7.3 8.3 8.9 8.3 1.1 0 1.6.5 1.3 1.3-.6 1.6 4.5 6.7 6.6 6.7.9 0 1.7 1 1.9 2.2.2 1.6 1.1 2.4 3 2.6 1.7.2 2.5.8 2.2 1.6-.7 1.7 5.4 7.8 10.4 10.5 1.2.6 2.2 1.7 2.2 2.3 0 .5 2.3 3.2 5.1 5.9s4.9 5.5 4.6 6.2c-.3.8.3 1.4 1.5 1.4 1.1.1 2.6 1 3.4 2 .7 1 1.4 1.3 1.4.8.3-2.3 1.9 3.3 1.9 6.7.1 4.4-1.2 4.8-4.6 1.6-1.3-1.2-2.3-1.7-2.3-1.2s1.3 1.8 2.9 2.9c1.6 1 2.8 2.2 2.5 2.6-.2.4 0 1 .5 1.3.5.4 1.3-1.6 1.8-4.4l.8-5.1 2.3 2.3c1.2 1.3 4.2 4.5 6.7 7.1 2.5 2.6 4.5 4.4 4.6 4 0-.4.4.2.9 1.4.5 1.3 1.6 2.3 2.4 2.3.7 0 1.6.7 2 1.5.3.8 1.1 1.5 1.8 1.5 1.3 0 2.9 2.4 4.4 6.2.3 1 1 1.8 1.5 1.8 1.9 0 7.1 5.9 6.6 7.5-.4.9-.2 1.5.6 1.4 3.2-.5 10.1 5.3 9.2 7.8-.2.8.4 1.3 1.4 1.3 1 0 2.1.7 2.5 1.5.3.8 1 1.5 1.5 1.5 1.1 0 7.1 5.8 7.1 6.9 0 .4 1.1 1.3 2.4 2 1.3.7 2.9 2.4 3.6 3.7.7 1.2 2.2 2.4 3.4 2.6 1.3.2 2.2 1.2 2.4 2.6.2 1.3 1.1 2.6 2 3 2 .7 4.7 3.2 3.6 3.2-.4 0 1 1.6 3.2 3.5 2.1 1.9 4.2 3.5 4.7 3.5.4 0 .7.6.7 1.4 0 .7 1.1 2.1 2.4 3 2.9 1.8 19.9 18.6 19 18.6-.4 0-.1.6.5 1.3.6.8.9 1.7.6 2-.3.4-.2.5.1.2 1.1-.8 4.4 1.5 4.4 3 0 .8.9 1.5 2.1 1.5 1.2 0 1.7.4 1.4 1.1-.7 1 2.9 5.2 3.7 4.3.6-.6 5.8 5.3 8.5 9.6 1.2 1.9 2.3 3.4 2.5 3.2.2-.2 1.6 0 3.1.3 2.1.6 2.7 1.2 2.4 2.6-.3 1-.2 1.8.2 1.7 1.2-.4 5.1 2.7 5.1 4 0 .7.8 1.5 1.8 1.9 1.9.7 9.2 8.2 9.2 9.4 0 .5-.7.6-1.5.3-.8-.4-1.5-.2-1.5.4 0 .6 1.2.8 2.8.6 2.3-.4 3.1.1 4.7 2.8 1.1 1.8 1.9 3.6 1.7 4-.1.4.5.5 1.4.1.9-.3 2.1.3 3 1.6.8 1.1 2.4 2.1 3.5 2.1 1.9 0 2.8 3.3 1.2 4.3-.5.2-.3.3.4.1 1.3-.3 8.3 6.2 8.3 7.6 0 .6.5 1 1 1 .6 0 1 .9 1 1.9 0 1.4.5 1.8 2 1.4 1.4-.4 2.1.1 2.6 2.1.3 1.4 1 2.4 1.4 2.1.7-.4 8 6 8 7.1 0 .8 6.3 6.4 7.2 6.4.5 0 .8.7.8 1.5s.4 1.5 1 1.5c1.4 0 24.9 24.1 25.6 26.2.3 1 1.4 1.8 2.5 1.8 1 0 1.9.5 1.9 1.1 0 1.2 12.7 13.9 13.9 13.9.5 0 1.5 1.3 2.2 2.9.7 1.6 1.8 2.7 2.3 2.5 1.2-.4 6.6 6.9 6.6 8.9 0 .9.2.9.9-.1.6-1 1.6-.6 4 1.9 1.8 1.8 3.9 4.3 4.8 5.6.8 1.2 2.3 2.3 3.2 2.3 1.4 0 1.4.2.1 1-1.3.8-1.3 1 .1 1 .9 0 2.6 1 3.7 2.2 5.9 6.7 8 8.8 8.4 8.8.3 0 2.3 1.7 4.4 3.7 2.1 2 3.3 3.4 2.7 2.9-.9-.5-1.1-.2-.7.8.3.9.9 1.5 1.2 1.5 1.9-.3 5.2 1.5 5.2 2.8 0 1.9 2.5 4.3 4.4 4.3.9 0 1.6.6 1.6 1.2.1 1.7 7.5 9.8 8.9 9.8.6 0 1.1.3 1.1.7 0 1.3 5.5 7.3 6.6 7.3.5 0 1.8 1.3 2.7 3 1 1.6 2.8 3.2 4.1 3.6 1.2.3 2.7 1.8 3.3 3.5 1 2.6 1.6 2.9 5.2 2.9h4.1V0H0v4zm23.2 13.4c1 .7 1.5 1.6 1.1 1.9-1.1 1.2-2.3.7-2.3-.9 0-.8-.4-1.2-1-.9-.5.3-1 .1-1-.4 0-1.4 1.1-1.3 3.2.3zm30.9 30.8c1.1 2.1 1.1 2.2-.4.9-1-.7-1.7-1.7-1.7-2.2 0-1.5.9-1 2.1 1.3zm5.9 5.4c0 .2-.9 0-2-.6s-2-1.3-2-1.6c0-.2.9 0 2 .6s2 1.3 2 1.6zm4 6.6c0 1.6-.3 1.9-1.1 1.1-.6-.6-.8-1.6-.5-2.2 1.1-1.7 1.6-1.3 1.6 1.1zm12.4 10.4c.4 1 .2 1.3-.6.8s-.9-.1-.4 1.1c.7 1.8.6 1.8-1.4 0s-2-2-.3-2.6c1-.4 1.9-.8 1.9-.8.1-.1.5.6.8 1.5zm4.7 8.1c-1.2 2-1.4 1.4-.5-1.2.4-.9.9-1.4 1.1-1.1.3.2 0 1.3-.6 2.3zm26.4 24.1c-.9.9-3.5-.8-3.5-2.4 0-1.6.2-1.6 2 .1 1.1 1 1.8 2 1.5 2.3zm10.3 9.7c-.3.3-.9-.2-1.2-1.2-.6-1.4-.5-1.5.5-.6.7.7 1 1.5.7 1.8zm30.2 29.7c0 1.9-.2 2-1 .8-1.3-1.9-1.3-3 0-3 .6 0 1 1 1 2.2zm11.7 11.4c-.3.3-1.2.4-1.9.1-.8-.3-.5-.6.6-.6 1.1-.1 1.7.2 1.3.5zm30.8 32.4c-.3.5-1.1 1-1.6 1-.6 0-.7-.5-.4-1 .3-.6 1.1-1 1.6-1 .6 0 .7.4.4 1zm56.5 55.1c0 .4-1.1.2-2.4-.4-1.3-.7-2.2-1.5-2-1.9.5-.8 4.4 1.3 4.4 2.3zm69 69.9c0 .5-.5 1-1.1 1-.5 0-.7-.5-.4-1 .3-.6.8-1 1.1-1 .2 0 .4.4.4 1zm2.7 1.5c0 .8-.4 1.2-.9.9-.5-.3-.6-1-.3-1.5.9-1.3 1.2-1.1 1.2.6zm22 23.1c-.3.3-1.2.4-1.9.1-.8-.3-.5-.6.6-.6 1.1-.1 1.7.2 1.3.5zm4 5.6c-.3.8-.6.5-.6-.6-.1-1.1.2-1.7.5-1.3.3.3.4 1.2.1 1.9zm9.3 6.2c0 .3-.4.8-1 1.1-.5.3-1 .1-1-.4 0-.6.5-1.1 1-1.1.6 0 1 .2 1 .4zm32.7 35.2c-.3.3-1.2.4-1.9.1-.8-.3-.5-.6.6-.6 1.1-.1 1.7.2 1.3.5zm6 6.6c-.3.8-.6.5-.6-.6-.1-1.1.2-1.7.5-1.3.3.3.4 1.2.1 1.9zm24.8 21.8c.3.5.1 1-.4 1-.6 0-1.1-.5-1.1-1 0-.6.2-1 .4-1 .3 0 .8.4 1.1 1zm51.5 54.4c0 .3-.4.8-1 1.1-.5.3-1 .1-1-.4 0-.6.5-1.1 1-1.1.6 0 1 .2 1 .4zm37 35.4c0 1.5-.2 1.5-1 .2-1.3-2-1.3-3.3 0-2.5.6.3 1 1.4 1 2.3zM2.8 16.7c.7.3 1.6.2 1.9-.1.4-.3-.2-.6-1.3-.5-1.1 0-1.4.3-.6.6zM7.1 20.6c0 1.1.3 1.4.6.6.3-.7.2-1.6-.1-1.9-.3-.4-.6.2-.5 1.3zM7.1 25.6c0 1.1.3 1.4.6.6.3-.7.2-1.6-.1-1.9-.3-.4-.6.2-.5 1.3zM9 26.2c0 .4 1.5 2.4 3.4 4.4 1.9 2.1 3.2 4.3 2.9 4.8-.4.6-.2.8.2.3.5-.4 1.7 0 2.7 1 1.7 1.5 1.8 1.4 1.8-1.5 0-2.6-.4-3.2-2.2-3.2-1.2 0-3.7-1.4-5.5-3.2C10.5 27 9 25.9 9 26.2zM24.1 38.6c-.1 2.9.4 4.4 1.4 4.8 1.8.7 1.8-.7 0-5.4l-1.3-3.5-.1 4.1zM21 41c0 .5.5 1 1.1 1 .5 0 .7-.5.4-1-.3-.6-.8-1-1.1-1-.2 0-.4.4-.4 1zM29.6 44.2c-1.8 2.1-1.8 2.2.4 3.8 1.5 1.1 2 2.2 1.5 3-.5.9-.4 1.1.3.6.7-.4 2.2.4 3.6 1.8 1.3 1.4 2.7 2.6 3.2 2.6.4 0-.9-1.7-3-3.9-2.1-2.1-3.4-4-2.8-4.2.5-.3.4-1.5-.3-3.1L31.4 42l-1.8 2.2zM40 57.5c0 .3.5 1.5 1 2.6 1 1.8 1.2 1.8 2.7.4.8-.9 1.4-1.7 1.2-1.9-.9-.8-4.9-1.7-4.9-1.1zM45 63.5c.7.8 1.7 1.2 2.2.9.6-.4.5-1-.3-1.5-2.2-1.4-3.3-1-1.9.6zM52.4 70.4c1.7 1.3 3.8 2.1 4.7 1.9 1.6-.5 1.6-.6-.2-2.4-1-1-3.1-1.9-4.6-1.9h-2.8l2.9 2.4z"/><path d="M60 77.5c0 1.7.2 1.8 2.4.9 2.3-.9 2-2.4-.4-2.4-1.1 0-2 .7-2 1.5zM63.3 79.7c.4.3.7.9.7 1.5 0 1.5 5.3 6.5 7.9 7.3 1.5.4 1.9 1 1.2 1.4-.7.5.1 1.8 2.4 3.9 2.8 2.4 3.7 2.8 4.1 1.7.6-1.5-4.6-7.5-6.5-7.5-.6 0-1.1-.6-1.1-1.4 0-.7-.9-1.6-2.1-1.9-1.1-.3-2.3-1.5-2.6-2.6-.3-1.2-.9-2.1-1.3-2.1-.5 0-1.4-.2-2.2-.3-.7-.2-1-.2-.5 0zM80 97.9c0 1 .6 2.1 1.3 2.4 1 .4 1.3-.2.9-1.9-.5-2.8-2.2-3.2-2.2-.5zM84 98.7c0 1.6.5 3.5 1 4.3.7 1.1 1 .4 1-2.8 0-2.3-.4-4.2-1-4.2-.5 0-1 1.2-1 2.7zM90 105c0 .5.6 1 1.4 1 .8 0 1.8-.5 2.1-1 .3-.6-.3-1-1.4-1-1.2 0-2.1.4-2.1 1zM91.2 109.9c.7 1.2 1.9 2.1 2.6 2.1 1.7 0 .7-1.7-1.9-3.1-1.8-.9-1.9-.9-.7 1zM95.5 114.2c-.5.7-.4 1 0 .5.5-.4 2.3.9 4.2 2.9 1.8 2 3.3 3.2 3.3 2.7s-1.5-2.4-3.4-4.2c-2.6-2.5-3.6-2.9-4.1-1.9zM104 122.8c0 .7.4 1.2.9 1.2.4 0 2 1.2 3.5 2.6 1.4 1.5 2.6 2.2 2.6 1.6 0-.6.3-1.7.6-2.6.5-1.2-.1-1.6-2.3-1.6-1.6 0-3.4-.5-4.1-1.2-.9-.9-1.2-.9-1.2 0zM112.8 127.7c.7.3 1.6.2 1.9-.1.4-.3-.2-.6-1.3-.5-1.1 0-1.4.3-.6.6zM113 130.5c1.6 2.2 5.3 5.9 8.8 8.9 4.3 3.7 2.1 1-4-4.9-3.4-3.3-5.6-5.1-4.8-4zM124.7 142.6c.7.3.9 1.2.6 2-.3.8.1 1.4 1 1.4.8 0 1.7.6 2 1.2.2.7.7 1 1.1.6.9-.8-3.4-5.8-4.8-5.7-.7 0-.6.3.1.5zM130.8 144.7c.7.3 1.6.2 1.9-.1.4-.3-.2-.6-1.3-.5-1.1 0-1.4.3-.6.6zM135.1 148.6c0 1.1.3 1.4.6.6.3-.7.2-1.6-.1-1.9-.3-.4-.6.2-.5 1.3zM132.1 150.7c0 .5 1.5 2 3.3 3.5l3.3 2.7-.5-2.4c-.3-1.6-1.1-2.5-2.3-2.5-1.1 0-1.9-.5-1.9-1 0-.6-.4-1-1-1-.5 0-1 .3-.9.7zM142.5 157.3c-.4 1-.5 2.1-.1 2.4 1 1 1.8-.4 1.3-2.4-.4-1.7-.4-1.7-1.2 0zM143 162c0 .5.5 1 1.1 1 .5 0 2.3 1.5 4 3.2 1.6 1.8 2.9 2.8 2.9 2.2 0-1.1-6.2-7.4-7.3-7.4-.4 0-.7.4-.7 1zM152 169.4c0 1.1 6 6.9 6.5 6.4.3-.2-1.1-2-3-3.8-1.9-1.9-3.5-3-3.5-2.6zM162 180.9c0 .5 1.2 1.7 2.8 2.7 1.5.9 3.2 2.5 3.9 3.3.7.9 1.3 1.1 1.3.5 0-1-6.4-7.4-7.5-7.4-.3 0-.5.4-.5.9zM181.8 197.9c-1 1.1-1.3 2.3-.9 2.6 1.1.6 3.4-2.1 2.9-3.5-.2-.6-1.1-.2-2 .9zM183.6 200.8c-.3.5.1 1.5.9 2.2 1.6 1.4 2 .3.6-1.9-.5-.8-1.1-.9-1.5-.3zM187.8 204.2c-.7 1.9.2 3.8 1.8 3.8.8 0 1.4.5 1.4 1.2 0 .6.2.9.5.7.6-.7-1.7-6.9-2.6-6.9-.4 0-.9.6-1.1 1.2zM192.1 204.6c0 1.1.3 1.4.6.6.3-.7.2-1.6-.1-1.9-.3-.4-.6.2-.5 1.3zM195 212.1c0 1 11 12.2 11.5 11.7.3-.2-2.2-3.1-5.5-6.3-3.3-3.3-6-5.7-6-5.4zM208 221.5c0 1.4.4 2.5.9 2.5 1.2 0 2.3-2.9 1.5-4.1-1-1.8-2.4-.9-2.4 1.6zM209 225c-1.3.8-1.3.9 0 1.4 4.1 1.3 7 1.5 7 .6 0-.5-.7-1-1.5-1s-1.5-.5-1.5-1c0-1.2-2-1.3-4 0zM213.1 231.7c1 1.7 1.9 2.1 3.9 1.6 3.6-.8 3.8-1.3.4-1.3-1.7 0-3.6-.6-4.3-1.3-1.1-1-1.1-.8 0 1zM220.6 236.7c-1.4 1.4-.5 3.1 1.4 2.6 1.1-.3 2-.9 2-1.3 0-1-2.6-2-3.4-1.3zM210.1 241.6c0 1.1.3 1.4.6.6.3-.7.2-1.6-.1-1.9-.3-.4-.6.2-.5 1.3zM224 241.5c0 1.4 6.7 8.5 8 8.5.3 0 .6-1.2.7-2.8 0-1.5-.1-1.9-.4-.9-.4 1.6-.7 1.6-3.4-.4-2.4-1.7-2.7-2.4-1.9-4 .9-1.6.7-1.9-1-1.9-1.1 0-2 .7-2 1.5zM237.5 247c-.3.6-.1 1 .4 1 .6 0 1.1.9 1.1 2 0 1.3-.7 2-2 2-1.7 0-1.8.3-.8 2.5 1.3 3 1.9 2.6 3.4-2.4.8-2.8.8-4-.2-4.9-.8-.7-1.5-.8-1.9-.2zM240.7 258.9c.3 1.2.9 2.1 1.4 2.1 1.4 0 1.1-1.6-.5-2.9-1.2-1-1.3-.8-.9.8zM252 263c0 .5.5 1 1.1 1 .5 0 .7-.5.4-1-.3-.6-.8-1-1.1-1-.2 0-.4.4-.4 1zM246.4 264.9c.4.5 2.8 2.7 5.5 5 4.4 3.7 4.8 3.8 4.4 1.7-.3-1.3-1.4-2.7-2.5-2.9-1.1-.3-2.2-1.5-2.5-2.6-.4-1.4-1.3-2.1-3-2.1-1.3 0-2.2.4-1.9.9zM260.3 278.4c1.8 1.8 3.4 3.2 3.6 3 .6-.5-5-6.4-6.1-6.4-.4 0 .7 1.5 2.5 3.4zM265.7 284c.3 1.1.9 1.7 1.5 1.4.5-.3.4-1.2-.3-2-1.6-1.9-1.8-1.8-1.2.6zM271.7 286.9c-.5 2.2 0 3.1 2 3.1 1.7 0 1.7-2.4-.1-3.9-1.1-.9-1.5-.7-1.9.8zM273 292.1c0 .9 2.7 1.9 5 1.9 1 0 2 .7 2.4 1.5.3.8.1 1.5-.4 1.5-.6 0-1 .4-1 1 0 .5.7.7 1.5.4.8-.4 1.5-.1 1.5.6 0 .6 2.7 3.8 6 7.1 3.3 3.2 6 5.5 6 5.1 0-.5-1.3-2.1-3-3.7-1.6-1.6-3-3.7-3-4.7 0-.9-.8-2.2-1.7-2.7-1-.5-2.9-2.7-4.2-4.8-2-3.4-2.8-3.9-5.7-3.9-1.9.1-3.4.4-3.4.7zM299.7 317.5c2 1.9 3.3 3.5 2.8 3.5s0 .6 1.1 1.4c1 .8 2 1.3 2.2 1.1.7-.7-2.3-5.5-3.4-5.5-.7 0-1.8-.9-2.4-2-.6-1.1-1.7-2-2.5-2-.9 0 0 1.4 2.2 3.5zM307.7 324.4c-.3.8.1 1.7.9 2 .8.3 1.4 1.2 1.4 2.1 0 .8.5 1.5 1 1.5 1.4 0 1.2-1.2-.5-3.6-.8-1.2-1.1-2.4-.8-2.8.3-.3.2-.6-.4-.6-.6 0-1.3.6-1.6 1.4zM312 327c0 .6.7 1 1.5 1s1.5-.2 1.5-.4-.7-.6-1.5-1c-.8-.3-1.5-.1-1.5.4zM313.6 331.5c.4.9 1.6 2.1 2.8 2.7 1.9 1 1.9.9-.3-1.6-2.8-3-3.3-3.2-2.5-1.1zM316.8 336.7c.6.2 1.8.2 2.5 0 .6-.3.1-.5-1.3-.5-1.4 0-1.9.2-1.2.5zM323 340.8c0 .5.7 1.6 1.6 2.3 1.4 1.2 1.6 1.1 1.3-.5-.4-2-2.9-3.5-2.9-1.8zM328 345.4c0 .5 1.1 1.9 2.4 3.1 1.3 1.2 2.5 2.8 2.8 3.6.3.8.9 1 1.4.6.4-.4-.9-2.4-2.9-4.5-2-2-3.7-3.3-3.7-2.8zM337.8 356.4c1.2 1 2.7 1.4 3.2 1.1.9-.6 1.4.8 1.1 2.8-.1.5.3.6.9.2.5-.3 1-1.5 1-2.6 0-1.3-.7-1.9-2.4-1.9-1.3 0-3.3-.3-4.3-.6-1.3-.5-1.2-.2.5 1zM344 361.8c0 1.8 2.5 3.1 4 2.2 1.7-1 1.3-1.5-1.7-2.4-1.3-.4-2.3-.3-2.3.2zM357.1 366.6c0 1.1.3 1.4.6.6.3-.7.2-1.6-.1-1.9-.3-.4-.6.2-.5 1.3zM350 367.8c0 1.5 4 5.2 5.6 5.2.8 0 1.2.5.9 1.1-.4.6.2 1.3 1.4 1.6 1.2.3 2.1.9 2.1 1.4 0 .5.7.9 1.5.9s1.5-.7 1.5-1.6c0-.8-.4-1.3-.8-1-.5.3-.8-.5-.8-1.6.1-1.8-.5-2.1-3.9-2.2-3.1-.1-4.2-.6-5-2.4-.9-2.1-2.5-3-2.5-1.4zM342.5 375c.3.5.8 1 1.1 1 .2 0 .4-.5.4-1 0-.6-.5-1-1.1-1-.5 0-.7.4-.4 1zM360 380c0 .5.5 1 1.1 1 .5 0 .7-.5.4-1-.3-.6-.8-1-1.1-1-.2 0-.4.4-.4 1zM364.8 379.7c-.9.2-1.5 1-1.2 1.8.3.7 1.4 1.1 2.6.7 1.7-.4 2-.2 1.4 1.3-.4 1.2.4 2.7 2.8 5.1 4.9 4.7 5.9 4.3 1.2-.5-2.7-2.8-3.4-4-2.4-4.5s1-.7.1-1.2c-.7-.3-1.3-1.2-1.3-2 0-1.4-.3-1.5-3.2-.7zM376.1 391.2c-.1 3.2 1.3 3.6 3.7 1.2 1.5-1.5 1.4-1.6-.5-1-1.6.5-2.3.2-2.6-1.1-.3-1.2-.5-.8-.6.9zM380.8 395.7c-.9.2-1.5 1-1.2 1.8.3.7 1.4 1.1 2.5.8 1.3-.4 1.9 0 1.9 1.2 0 3.1 4.8 8.5 7.6 8.5 2.5 0 3.2-1.4 1.3-2.5-.6-.4-.8-1.3-.5-2.1.8-2-1.1-1.7-2.3.3-1.2 2.2-3.1.7-3.4-2.5 0-1.2-.7-2.4-1.4-2.6-.7-.3-1.3-1.2-1.3-2.1 0-1.5-.2-1.6-3.2-.8zM392.5 411c.3.5.8 1 1.1 1 .2 0 .4-.5.4-1 0-.6-.5-1-1.1-1-.5 0-.7.4-.4 1zM396 413.4c2.8 3.7 6 6.9 6 5.9 0-.5-1.7-2.5-3.7-4.4-2-1.8-3.1-2.5-2.3-1.5zM401 415c0 .5 1.2 1 2.6 1 1.4 0 2.3-.4 1.9-1-.3-.6-1.5-1-2.6-1-1 0-1.9.4-1.9 1zM403 420.3c0 .7 12.6 13.7 13.4 13.7.2 0 .1-1-.2-2.3-.7-2.6-5.5-7.7-7.3-7.7-.7 0-2.3-1-3.6-2.2-1.3-1.2-2.3-1.9-2.3-1.5zM419.9 437.5c2.1 3.8 4 5.7 5 5 .6-.3 1.1 0 1.1.8 0 2.2 5 5.3 6 3.7.6-.9.9-.9 1.2.1.3.8.9 1.1 1.3.7.4-.4-.8-1.7-2.8-2.8-1.9-1.2-3.8-2.8-4.1-3.6-.3-.9-1.2-1.4-1.9-1.1-.6.2-2.5-.7-4.1-2.2-2.2-2-2.6-2.1-1.7-.6zM414.6 447.7c-.6 1.4-.5 1.5.5.6.7-.7 1-1.5.7-1.8-.3-.3-.9.2-1.2 1.2zM436 454.3c3.1 3.6 6.2 5.4 5.4 3.2-.5-1.1 0-1.5 1.7-1.5 1.8 0 2-.3 1-.9-.9-.6-2.1-.5-3.2.2-1.5.9-2.3.7-4.6-1.3l-2.8-2.5 2.5 2.8zM443.2 460.5c-1.1 1.3-1 1.5.6 1.5 1.4 0 2.1.9 2.6 3.2.3 1.7.9 2.9 1.2 2.6.6-.7-1.7-8.8-2.5-8.8-.3.1-1.2.7-1.9 1.5zM449.7 467.9c.3 1.2.9 2.1 1.4 2.1 1.4 0 1.1-1.6-.5-2.9-1.2-1-1.3-.8-.9.8zM455.8 472.3c-.4 1.9-.1 2.4 1 1.9 1-.3 1.3-.1.8.6-.4.7-.2 1.2.4 1.2.6 0 1.5 1.1 2.1 2.4.7 1.4 1.7 2.2 2.5 1.9 2.2-.8 1.7-2.1-2.5-6.4-3.8-4-3.8-4-4.3-1.6zM453.5 472c-.3.5-.1 1 .4 1 .6 0 1.1-.5 1.1-1 0-.6-.2-1-.4-1-.3 0-.8.4-1.1 1zM467 481c0 .5-.7 1-1.5 1s-1.5.4-1.5 1c0 .5.9 1 2 1s2-.2 2-.4.3-1.1.6-2c.3-.9.1-1.6-.5-1.6s-1.1.4-1.1 1zM470.8 485.8c-2.3.5-2.3 1.4.2 3 1.6 1 2 1 2 0 0-.9.3-.8 1 .2.8 1.3 1 1.3 1-.1 0-2.1-2-3.6-4.2-3.1zM476.8 491.7c-.9.2-1.5 1-1.2 1.8.7 1.6 4.4.7 4.4-1.1 0-1.4-.3-1.5-3.2-.7zM482.6 500.2c1.6 2.1 3.3 3.8 3.7 3.8.5 0 .5.4.2 1-.3.5.1 1 1 1 1.1 0 1.5.5 1.2 1.4-.4 1-.1 1.3.9.9 1-.3 1.7.1 2 1.4.5 1.9 4.4 3 4.4 1.2 0-.5-.7-.9-1.6-.9-.8 0-1.3-.4-.9-.9.3-.5-.5-1.7-1.7-2.6-1.5-1.2-1.9-1.9-1-2.2 1.4-.6 1.6-3.3.2-3.3-.5 0-1 .7-1 1.5 0 2.5-2.2 1.7-6.4-2.3l-3.9-3.7 2.9 3.7z"/></svg>